<?xml version="1.0" encoding="utf-8"?>
<!-- Generator: Adobe Illustrator 25.0.1, SVG Export Plug-In . SVG Version: 6.00 Build 0)  -->
<svg version="1.1" xmlns="http://www.w3.org/2000/svg" xmlns:xlink="http://www.w3.org/1999/xlink" x="0px" y="0px"
	 viewBox="0 0 1366 768" style="enable-background:new 0 0 1366 768;" xml:space="preserve">
<style type="text/css">
	.st0{fill:#EDFF00;stroke:#076B09;stroke-miterlimit:10;}
	.st1{fill:#076B09;stroke:#076B09;stroke-miterlimit:10;}
</style>
<g id="background">
	<g>
		<path class="st0" d="M977.2,583.9c0.1,0,0-0.1-0.2-0.1C977.1,583.9,977.2,584,977.2,583.9z"/>
		<path class="st0" d="M941.1,138.2c-4.9,16.1-8.2,32.6-10.4,49.3c-0.7,17.9-0.9,35.7,2,53.1c5-8.8,11.3-17,17.8-25.1
			c6.6-10.7,14.1-20.8,22-30.7C964.3,171.6,951.9,153.5,941.1,138.2z"/>
		<path class="st0" d="M664,619.2c-7.7-23.5-15.4-48.8-16.4-74c-20.9,17.8-41.5,35.9-61.8,54.4c12.8,12.5,36.2,35.8,37.3,39
			c1,2.9,33,18.6,55.5,29.4c-2.5-9.1-4.9-18.2-7.2-27.4C668.9,633.5,666.4,626.4,664,619.2z"/>
		<path class="st0" d="M914.5,114c0.4-1.3,0.8-2.6,1.2-3.9c-1,0.6-2.1,1.2-3.4,1.9C913.2,112.5,914,113.2,914.5,114z"/>
		<path class="st0" d="M468.2,592.3c10.3-23.4,22.3-46.1,33.5-69c8.1-16.6,16.2-33.8,22.5-51.4c3.1-10.8,6-21.5,8.8-32.4
			c0.4-2.4,0.8-4.8,1.2-7.2c-11.2,15.2-23.6,29.7-36,44c-6.7,12.1-13.8,23.9-22.4,34.8c-12,15.2-26.4,28.3-40,42.1
			c-1.7,1.8-3.5,3.5-5.3,5.3c-1.3,2.4-2.5,4.7-3.8,7.1l33.6,10.1L468.2,592.3z"/>
		<path class="st0" d="M1025.9,411.1l58.1-21.4c-6.6-6-13.1-12-19.6-18.1c-5.5-3.2-10.9-6.5-16.3-9.9c-6.2-3.2-12.5-6.5-18.8-9.5
			c-15-7.2-30.3-13.7-45-21.3c-11.1-5.7-24.8-12.9-36.6-22c-13.1-7.6-25.5-16.4-35.8-27.1c-0.2-0.1-0.4-0.2-0.6-0.3
			c-27.6-16.3-24.2-51.7-20.3-78.6c0.4-2.7,2.1-4.1,4.1-4.5c1.4-24.5,2.3-49,11.5-72.2c0.4-1,0.9-1.7,1.5-2.3
			c-3.6-0.6-5.2-3.8-5-6.8c-22.7,13-61.5,36.2-66.8,45.3c-7.6,12.9-64.1,66.4-64.1,66.4s-42.8-45.2-42.7-50.7
			c0.1-5.5-36.8-30.5-40.6-34.2c-3.8-3.7-24.6-13.9-24.6-13.9l-2.9,61.3L623.2,144c50.7,93.3,18.3,62.3,19.9,61.2
			s-114.5-52.5-114.5-52.5l82.2,76.1l-77.9,38.3L460.6,279c3.7,16.9,13.5,32.2,22.4,46.9c1.8,3,3.7,6.1,5.4,9.2
			c7.9,7.9,15.2,16.4,21,25.8c9.4-8.1,18.9-16.2,30.1-21.9c6.4-3.2,13.1,4.7,7.8,9.9c-0.4,0.4-0.9,0.8-1.4,1.3
			c3.3,0,5.9,2.6,6.6,5.4c2.6,0.9,4.5,3.3,4.2,6.2c3.7-0.2,7.1,3.3,7.1,6.7c0.9-0.1,1.7,0.1,2.5,0.4c3.7-3.5,7.7-6.7,12-9.7
			c6.8-4.7,13.2,6.2,6.5,10.9c-15.6,10.9-26.6,26.4-36.8,42c2.4,1.2,4.1,3.7,3.3,7c-0.2,0.7-0.3,1.3-0.5,2c2.1-3.4,4.5-6.7,7.1-9.8
			c5.3-6.3,14.3,2.7,9.1,8.9c-0.6,0.7-1.1,1.4-1.6,2.1c1.4,1.8,2.1,4.3,0.9,6.9c-9.2,20.9-14.9,43.1-20.2,65.2
			c-4.8,19.8-9.1,39.6-14.5,59.2c-1.3,4.6-2.7,9.2-4.2,13.7c6.2-4.4,12.5-8.4,18.8-12.4c30.1-18.6,61.8-34.9,92.8-52.1
			c15.1-8.4,30.4-16.8,46.3-23.6c8.9-3.8,19.8-8.9,30.1-9c1.7-1.2,3.5-2.5,5.2-3.8c6.5-4.9,12.9,6,6.5,10.9
			c-0.2,0.1-0.4,0.3-0.5,0.4c-0.6,3.2-3.4,6.2-7.6,5.4c-4.4,3.1-9,6-13.6,8.8c0.8,1.7,0.9,3.6,0,5.2c-0.7,2.4-2.6,4.6-5.9,4.8
			c-0.9,0.1-1.8,0.2-2.8,0.3c-0.7,0.4-1.4,0.7-2.1,1.1c3.5,1.2,5.2,5.6,3.8,8.8c0,0.1,0,0.3,0,0.5c-0.1,1.9-0.2,3.8-0.3,5.7
			c-0.2,6.1-0.2,12.1-0.2,18.2c0.1,18.2,0.4,36.4,0.9,54.6c4,21.1,6.7,42.6,9.8,63.9c0,0.2,0.1,0.4,0.1,0.6c1.2,2.7,2.3,5.4,3.5,8.1
			l28.8-34.7c0,0,47.3,9.2,52.9,12.9c5.7,3.7,60.6,17.7,61.5,13.9c0.9-3.8,18.6-64.5,18.6-64.5s97.3-8,103.1-7.7
			c-2.3-2.5,3.1-57.6,0.3-60.2c-2.9-2.6-19-88.9-24.2-94.7C947.9,423.1,1025.9,411.1,1025.9,411.1z"/>
	</g>
</g>
<g id="Leaf">
	<path class="st1" d="M923.1,284.4c-1.3-8.9-2.8-21-5.1-58c-0.8-13.6-4.5-72.9-2.6-73.1c0.4,0,0.8,1.8,1.4,4.5
		c0.1-4.6,0.6-9.1,1.3-13.6c0-0.2,0-0.3,0-0.5c-1.2-1.3-1.7-3.2-1.1-5.4c0.6-2,1.2-4.1,1.8-6.1c0.1-0.5,0.1-1,0.2-1.5
		c0-1.3-0.1-2.6-0.1-3.8c-0.5-1.1-0.6-2.4-0.2-3.9c0.1-0.4,0.2-0.7,0.3-1.1c0-2.3,0.1-4.6,0.2-6.9c1.1-20.4,12.5-41.2,22.5-57.7
		c-45.8,3.6-91.2,11-136.9,15.7c-48.8,5.1-103.2,7.8-152,13.4c-47.2,5.4-93.1,17.8-134.7,40.8c-17.7,9.8-34.5,21.4-47.3,37.1
		c-11.2,13.7-18.1,30.1-21.3,47.4c-1.7,9.3-2.3,18.8-2.2,28.3c0.1,9.4,0,18.9,0.5,28.4c1.6,4.3,3.4,8.5,5.4,12.5
		c0.3,0.4,0.5,0.7,0.8,1.1c5.3,3.3,11.1,6.5,17.4,10c19.8,11,28.2,10.9,44.9,23.9c9,7,16.6,14.9,19.2,17.6
		c8.9,9.3,13.4,13.9,15.4,18.9c4.5,11,1.3,22.9-1.4,30.6c-9,9.3-27.7,32.3-41,50c-6.6,8.8-11.8,16.3-15.4,21.4l-23,31
		c4.6,5.4,9.3,10.7,14.2,15.9c4,0.3,13.9-2.8,43.4-33.1c17.4-17.8,32.6-35.8,38.5-42.8c9.7-11.6,11.7-14.7,19.2-22.7
		c8.6-9.1,19.2-19.3,33.4-29c8.2-5.6,12.7-7.7,12.8-7.6c0.2,0.3-17.3,8.8-22,16.1c1.2-0.4,2.3-0.7,3.5-0.9c1.8-2,4.8-3.1,7.9-1.7
		c1.4,0.6,2.8,1.3,4.1,2c6.8,1.8,12.6,6.4,17.5,12.5c5.2,1.6,9.9,4.2,13.4,8.6c5.2,6.5,3.6,11.9,3.2,25.3c2.1,6.9,3.7,13.3,4.6,18.4
		c0.6,3.3-1.2,5.8-3.6,7.1c1.3,13.9,3.6,30.1,12.4,47.5c3.2,6.2,9.7,18.7,23.1,30.2c6,5.2,20.4,17.6,41.1,20.2
		c9.3,1.2,13.4-0.5,39.8-6.3c46.8-10.3,43.7-7.3,52.6-11.3c21.8-9.8,35-25.5,47.5-40.3c6-7.1,15.5-19.5,24.4-36.5
		c12.6-24.3,16.6-44.2,21.8-70.6c5.1-25.5,8.3-41.8,6.4-64.3C928.3,308.4,926.5,307.9,923.1,284.4z M601.6,325.6
		c-0.9,6.1-8.4,5.6-11.3,1.4c-1-0.3-2-0.9-2.9-2c-13.6-16.9-23.2-36.9-30-57.3c-6.7-19.8-11.5-42.3-6.3-63c2-7.9,14.4-4.5,12.4,3.4
		c-4.6,18.4,0.4,38.7,6.3,56.3c5,14.9,11.6,29.9,20.5,43.2c-0.2-27.4-11.2-53.9-18.2-80.1c-4.1-15.3-7.1-31.3-6.3-47.1
		c0.9-17.3,6.4-33.7,15.5-48.5c4.3-6.9,15.4-0.6,11.1,6.4c-9.3,15.1-14.2,31.6-13.9,49.3c0.3,15.5,4.1,30.6,8.4,45.4
		C595.6,263.2,606.4,293.4,601.6,325.6z M652.1,320.5c-0.6,7.7-12.5,8.1-12.8,0.9c-2.7,0.2-5.6-1.1-6.7-4.3
		c-5.6-17.2-5.6-35.4-3.1-53.1c4.8-33.3,18.3-65.6,35-94.7c6.8-11.8,14.7-23.4,23-34.2c8.3-10.8,18.6-22.2,32.7-24.9
		c8.1-1.6,11.5,10.6,3.4,12.2c-16.4,3.2-26.6,20.8-35.1,33.4c-9.6,14.3-18.3,28.7-25.6,44.3c-14.3,30.6-27.3,68.1-20.9,102.4
		c2.3-10.7,5.9-21.1,10.2-31.2c13.6-31.6,34.3-60.2,58.1-85.1c21.6-22.6,47-43.6,76-56.5c7.5-3.3,14,7.6,6.5,10.9
		c-14.9,6.6-28.8,15.5-41.6,25.5c-25.7,20.2-48.3,44.8-66.2,71.9C668.6,262.4,654.5,290.7,652.1,320.5z M884.3,468
		c-13,14.9-33.4,23.1-52.6,26.7c-33.6,6.4-77.9,0.2-88.1-37.4c-4.1-15-4.1-30.9-8.9-45.7c-1.7-5.1-4.2-10.6-9-13.5
		c-4.7-2.8-10.3-2.7-15.7-1.7c-0.3,0.8-0.6,1.6-0.8,2.4c-2.1,7.5-13.7,4.7-12.5-2.5c-2.6-3.1-2.3-8.9,2.9-10.3
		c0.7-0.2,1.3-0.4,2-0.5c9.3-13.4,27.7-19,43.5-22.1c21-4.1,43.3-3.6,63.8-9.7c7.9-2.4,11.3,9.8,3.4,12.2c-18.7,5.5-38.9,5.4-58,8.7
		c-9.8,1.6-23,3.9-32.8,9.6c9.4,1.4,17.6,6.3,22.6,16.4c6.7,13.6,7.2,29.2,9.9,43.8c1.2,6.7,2.6,14,6.2,19.9
		c4,6.6,10.4,11.3,17.4,14.5c16.2,7.3,35.9,7,53,3.4c16.5-3.4,33.6-10.2,44.8-23.1C880.6,452.9,889.7,461.9,884.3,468z M888.2,121.6
		c-19.5,13.4-38.2,27.9-56,43.5c-57,49.7-107.9,108.9-143.7,175.4c39.6-36.3,98.5-34.6,146.4-56c7.5-3.3,14,7.5,6.5,10.9
		c-50.2,22.5-115.2,19-153,63.7c-2.9,3.4-6.9,2.3-9.1-0.4c-0.7,1.4-1.4,2.8-2.1,4.3c-3.5,7.4-14.5,0.9-11.1-6.4
		c10.1-21.3,21.8-41.8,34.8-61.5c47.2-71.7,109.4-135.5,180.8-184.3C888.5,106,895,117,888.2,121.6z"/>
	<g id="Layer_3">
	</g>
</g>
</svg>
